<svg width="31" height="31" viewBox="0 0 31 31" fill="none" xmlns="http://www.w3.org/2000/svg">
<path d="M24.4729 2.36483e-07V0.661609C24.4729 4.3662 18.251 7.36909 10.5763 7.36909C6.34003 7.36909 2.54895 6.4531 8.15556e-08 5.01017C0.859448 8.34761 6.70027 11.11 13.7832 11.11C21.4579 11.11 27.6798 7.86717 27.6798 4.16258C27.6798 2.53368 26.474 1.09823 24.4729 2.36483e-07Z" transform="translate(3.32031 15.6108)" fill="#FCC62D"/>
<path d="M13.8966 6.94744C6.22191 6.94744 -1.16217e-07 3.70459 -1.16217e-07 0V4.51477C-1.16217e-07 8.21935 6.22191 11.2228 13.8966 11.2228C21.5712 11.2228 27.7931 8.21935 27.7931 4.51477V0C27.7931 3.70459 21.5712 6.94744 13.8966 6.94744Z" transform="translate(3.20679 19.7734)" fill="#E4AF18"/>
<path d="M1.38645e-07 4.46186C0.315345 4.74991 0.672914 5.02567 1.06897 5.28753V0.856673C0.672914 0.584119 0.315345 0.298205 1.38645e-07 0V4.46186Z" transform="translate(4.8103 22.98)" fill="#CE9912"/>
<path d="M-8.808e-07 0.856673V5.28753C0.396051 5.0262 0.75362 4.74991 1.06896 4.46186V0C0.754154 0.298205 0.396585 0.584119 -8.808e-07 0.856673Z" transform="translate(28.3276 22.98)" fill="#CE9912"/>
<path d="M1.38645e-07 4.40307C0.337793 4.57783 0.694828 4.74296 1.06897 4.89955V0.521059C0.694828 0.356458 0.337793 0.182771 1.38645e-07 -4.56656e-07V4.40307Z" transform="translate(6.94824 24.4875)" fill="#CE9912"/>
<path d="M-8.808e-07 4.89955C0.374137 4.7435 0.731171 4.57783 1.06896 4.40307V-1.63091e-07C0.731171 0.182771 0.374137 0.35699 -8.808e-07 0.521057V4.89955Z" transform="translate(26.1897 24.4871)" fill="#CE9912"/>
<path d="M1.38645e-07 4.35604C0.345276 4.47415 0.701776 4.58424 1.06897 4.68685V0.350578C0.701776 0.241557 0.345276 0.12452 1.38645e-07 9.45931e-07V4.35604Z" transform="translate(9.08618 25.4351)" fill="#CE9912"/>
<path d="M-8.808e-07 4.68685C0.367189 4.58424 0.723689 4.47415 1.06896 4.35604V9.45931e-07C0.723689 0.12452 0.367189 0.241557 -8.808e-07 0.350578V4.68685Z" transform="translate(24.0518 25.4351)" fill="#CE9912"/>
<path d="M1.38645e-07 4.31169C0.349017 4.38223 0.706052 4.44529 1.06897 4.5014V0.202545C0.706052 0.142155 0.349017 0.0748179 1.38645e-07 -6.19748e-07V4.31169Z" transform="translate(11.7588 26.1951)" fill="#CE9912"/>
<path d="M-8.808e-07 4.50194C0.362913 4.44529 0.719947 4.38223 1.06896 4.31222V-3.26183e-07C0.719947 0.0748182 0.362913 0.142156 -8.808e-07 0.203079V4.50194Z" transform="translate(21.3794 26.1946)" fill="#CE9912"/>
<path d="M1.38645e-07 4.28122C0.35169 4.30741 0.708724 4.32558 1.06897 4.33841V0.0614572C0.708724 0.0475623 0.35169 0.0283244 1.38645e-07 2.60946e-07V4.28122Z" transform="translate(14.9656 26.6611)" fill="#CE9912"/>
<path d="M-8.808e-07 4.33894C0.36024 4.32558 0.717275 4.30795 1.06896 4.28176V2.60946e-07C0.717275 0.0283244 0.36024 0.0475641 -8.808e-07 0.0619934V4.33894Z" transform="translate(18.1724 26.6611)" fill="#CE9912"/>
<path d="M13.8966 6.94744C6.22191 6.94744 0 3.70459 0 1.63091e-08V4.51477C0 8.21935 6.22191 11.2228 13.8966 11.2228C21.5712 11.2228 27.7931 8.21935 27.7931 4.51477V1.63091e-08C27.7931 3.70459 21.5712 6.94744 13.8966 6.94744Z" transform="translate(0 11.7534)" fill="#E4AF18"/>
<path d="M1.12139e-08 4.46132C0.315345 4.74937 0.672914 5.02514 1.06897 5.287V0.856138C0.672914 0.583585 0.315345 0.297671 1.12139e-08 -2.77256e-07V4.46132Z" transform="translate(1.60352 14.9604)" fill="#CE9912"/>
<path d="M-8.808e-07 0.856673V5.28753C0.396051 5.0262 0.75362 4.74991 1.06896 4.46186V1.63092e-08C0.754154 0.298205 0.396585 0.584119 -8.808e-07 0.856673Z" transform="translate(25.1206 14.96)" fill="#CE9912"/>
<path d="M-1.16217e-07 4.40307C0.337793 4.57783 0.694828 4.74296 1.06897 4.89955V0.521058C0.694828 0.356457 0.337793 0.182771 -1.16217e-07 -4.40347e-07V4.40307Z" transform="translate(3.74121 16.4675)" fill="#CE9912"/>
<path d="M-8.808e-07 4.89955C0.374137 4.7435 0.731171 4.57836 1.06896 4.40307V-1.46782e-07C0.731171 0.182771 0.374137 0.356991 -8.808e-07 0.521058V4.89955Z" transform="translate(22.9829 16.467)" fill="#CE9912"/>
<path d="M1.38645e-07 4.35604C0.345276 4.47415 0.701776 4.58424 1.06897 4.68685V0.350578C0.701776 0.241557 0.345276 0.12452 1.38645e-07 9.6224e-07V4.35604Z" transform="translate(5.87939 17.415)" fill="#CE9912"/>
<path d="M-8.808e-07 4.68685C0.367189 4.58424 0.723689 4.47415 1.06896 4.35604V9.6224e-07C0.723689 0.12452 0.367189 0.241557 -8.808e-07 0.350578V4.68685Z" transform="translate(20.8447 17.415)" fill="#CE9912"/>
<path d="M1.38645e-07 4.31169C0.349017 4.38223 0.706052 4.44529 1.06897 4.5014V0.202545C0.706052 0.142156 0.349017 0.074818 1.38645e-07 -6.03439e-07V4.31169Z" transform="translate(8.55176 18.175)" fill="#CE9912"/>
<path d="M-8.808e-07 4.50194C0.362913 4.44529 0.719947 4.38223 1.06896 4.31222V-6.03439e-07C0.719947 0.074818 0.362913 0.142155 -8.808e-07 0.203079V4.50194Z" transform="translate(18.1724 18.175)" fill="#CE9912"/>
<path d="M1.38645e-07 4.28123C0.35169 4.30741 0.708724 4.32558 1.06897 4.33841V0.061459C0.708724 0.0475641 0.35169 0.0283242 1.38645e-07 -1.63091e-08V4.28123Z" transform="translate(11.7588 18.6416)" fill="#CE9912"/>
<path d="M1.38645e-07 4.33894C0.360242 4.32558 0.717276 4.30795 1.06897 4.28176V2.77256e-07C0.717276 0.0283244 0.360242 0.0475641 1.38645e-07 0.0619934V4.33894Z" transform="translate(14.9656 18.6411)" fill="#CE9912"/>
<path d="M20.3071 -9.94858e-07C18.8763 2.96923 13.3637 5.18279 6.77564 5.18279C4.31488 5.18279 2.00484 4.87283 1.14178e-07 4.33146C1.9391 5.64773 5.39026 6.76787 9.98253 6.76787C17.2953 6.76787 21.7412 3.92958 21.7412 1.97628C21.7412 1.32429 21.2393 0.63275 20.3071 -9.94858e-07Z" transform="translate(7.12109 17.7971)" fill="#FFD949"/>
<path d="M16.569 9.72855C8.89433 9.72855 2.67241 6.72512 2.67241 3.02053V-2.52792e-07C0.993603 1.05227 0 2.37175 0 3.84995C0 7.55454 6.22191 10.7974 13.8966 10.7974C17.592 10.7974 20.9474 10.0444 23.4365 8.85104C21.4103 9.40843 19.0677 9.72855 16.569 9.72855Z" transform="translate(0 7.90723)" fill="#FFD949"/>
<path d="M13.8966 6.94744C6.22191 6.94744 -1.16217e-07 3.70459 -1.16217e-07 1.63092e-08V4.51477C-1.16217e-07 8.21935 6.22191 11.2228 13.8966 11.2228C21.5712 11.2228 27.7931 8.21935 27.7931 4.51477V1.63092e-08C27.7931 3.70459 21.5712 6.94744 13.8966 6.94744Z" transform="translate(2.67236 6.40918)" fill="#E4AF18"/>
<path d="M1.38645e-07 4.46132C0.315345 4.74937 0.672914 5.02513 1.06897 5.287V0.856138C0.672914 0.583585 0.315345 0.297671 1.38645e-07 -2.77256e-07V4.46132Z" transform="translate(4.27588 9.61621)" fill="#CE9912"/>
<path d="M-8.808e-07 0.856673V5.28753C0.396051 5.0262 0.75362 4.74991 1.06896 4.46186V1.63092e-08C0.754154 0.298205 0.396585 0.584119 -8.808e-07 0.856673Z" transform="translate(27.7932 9.61572)" fill="#CE9912"/>
<path d="M1.38645e-07 4.40307C0.337793 4.57783 0.694828 4.74296 1.06897 4.89955V0.521058C0.694828 0.356457 0.337793 0.182771 1.38645e-07 -4.40347e-07V4.40307Z" transform="translate(6.41382 11.1233)" fill="#CE9912"/>
<path d="M-8.808e-07 4.89955C0.374137 4.7435 0.731171 4.57836 1.06896 4.40307V-1.46782e-07C0.731171 0.182771 0.374137 0.356991 -8.808e-07 0.521058V4.89955Z" transform="translate(25.6553 11.1228)" fill="#CE9912"/>
<path d="M1.38645e-07 4.35604C0.345276 4.47415 0.701776 4.58424 1.06897 4.68685V0.350578C0.701776 0.241557 0.345276 0.124519 1.38645e-07 -5.7082e-08V4.35604Z" transform="translate(8.55176 12.0708)" fill="#CE9912"/>
<path d="M-8.808e-07 4.68685C0.367189 4.58424 0.723689 4.47415 1.06896 4.35604V-5.7082e-08C0.723689 0.124519 0.367189 0.241557 -8.808e-07 0.350578V4.68685Z" transform="translate(23.5171 12.0708)" fill="#CE9912"/>
<path d="M1.38645e-07 4.31169C0.349017 4.38223 0.706052 4.44529 1.06897 4.5014V0.202545C0.706052 0.142156 0.349017 0.074819 1.38645e-07 4.15883e-07V4.31169Z" transform="translate(11.2241 12.8308)" fill="#CE9912"/>
<path d="M-8.808e-07 4.50194C0.362913 4.44529 0.719947 4.38223 1.06896 4.31222V4.15883e-07C0.719947 0.074819 0.362913 0.142155 -8.808e-07 0.203079V4.50194Z" transform="translate(20.8447 12.8308)" fill="#CE9912"/>
<path d="M1.38645e-07 4.28123C0.35169 4.30741 0.708724 4.32558 1.06897 4.33841V0.061458C0.708724 0.0475631 0.35169 0.0283242 1.38645e-07 -1.63092e-08V4.28123Z" transform="translate(14.4309 13.2974)" fill="#CE9912"/>
<path d="M-8.808e-07 4.33894C0.36024 4.32558 0.717275 4.30795 1.06896 4.28176V2.77256e-07C0.717275 0.0283244 0.36024 0.0475631 -8.808e-07 0.0619924V4.33894Z" transform="translate(17.6379 13.2969)" fill="#CE9912"/>
<path d="M27.7931 6.41302C27.7931 10.1176 21.5712 13.3605 13.8966 13.3605C6.22191 13.3605 -1.16217e-07 10.1176 -1.16217e-07 6.41302C-1.16217e-07 2.70843 6.22191 0 13.8966 0C21.5712 0 27.7931 2.70843 27.7931 6.41302Z" transform="translate(2.67236)" fill="#FCC62D"/>
<path d="M11.7586 9.60136C4.44583 9.60136 1.38645e-07 6.7636 1.38645e-07 4.80976C1.38645e-07 2.85647 4.44583 0 11.7586 0C19.0714 0 23.5172 2.85647 23.5172 4.80976C23.5172 6.7636 19.0714 9.60136 11.7586 9.60136Z" transform="translate(4.8103 1.60327)" fill="#FFD949"/>
<path d="M8.43414 3.39808C8.87241 3.30509 9.1295 3.03467 9.0349 2.72631L8.93334 2.39711C8.85905 2.15502 8.5699 1.95301 8.21554 1.85254C7.73343 0.822715 6.50412 0.449692 4.67833 0.449692C4.59174 0.449692 4.50729 0.451829 4.42391 0.455036C3.80071 0.480688 3.1791 0.420833 2.69433 0.243406C2.49657 0.17126 2.33569 0.0959067 2.22933 0.0173472C2.18122 -0.0179244 2.06471 0.00452113 2.06471 0.0494123C2.06471 0.127437 2.07059 0.219892 2.08769 0.3225C2.15397 0.721711 2.07486 0.661856 1.68041 1.06C1.45166 1.29193 1.2694 1.55914 1.13738 1.85414C0.785155 1.95515 0.497603 2.15662 0.42331 2.39765L0.321759 2.72685C0.227156 3.03521 0.484241 3.30562 0.922517 3.39861C1.04759 4.18741 1.58367 4.88002 2.75259 5.26159L2.68845 5.81578C2.67135 5.96382 2.5436 6.10063 2.3576 6.16797L-1.54956e-07 7.01876C1.37683 7.30735 2.94607 7.48157 4.67833 7.48157C6.38654 7.48157 7.936 7.31216 9.29893 7.03159L6.99264 6.16957C6.81038 6.10116 6.68531 5.96542 6.66874 5.82006L6.60407 5.26159C7.77298 4.88002 8.30907 4.18688 8.43414 3.39808Z" transform="translate(11.759 3.74121)" fill="#F0C41B"/>
</svg>
