<svg width="52" height="52" viewBox="0 0 52 52" fill="none" xmlns="http://www.w3.org/2000/svg">
<path d="M13 38.0494C18.2065 31.801 26 21.096 26 12.9995C26 5.83026 20.1695 2.02488e-07 13 2.02488e-07C5.8305 2.02488e-07 0 5.83026 0 12.9995C0 21.096 7.79783 31.8053 13 38.0494ZM13 4.33315C17.7797 4.33315 21.6667 8.21999 21.6667 12.9995C21.6667 18.4311 16.3843 26.6359 13 31.1597C9.6135 26.6402 4.33333 18.4397 4.33333 12.9995C4.33333 8.21999 8.2225 4.33315 13 4.33315Z" transform="translate(13 6.50397)" fill="#6D84FF"/>
<path d="M4.33333 8.66631C6.72657 8.66631 8.66667 6.72629 8.66667 4.33315C8.66667 1.94002 6.72657 0 4.33333 0C1.9401 0 0 1.94002 0 4.33315C0 6.72629 1.9401 8.66631 4.33333 8.66631Z" transform="translate(21.6667 15.1703)" fill="#6D84FF"/>
</svg>
