<svg width="41" height="41" viewBox="0 0 41 41" fill="none" xmlns="http://www.w3.org/2000/svg">
<path d="M5.125 2.5625C5.125 1.148 3.977 0 2.5625 0C1.148 0 0 1.148 0 2.5625V3.41667H5.125V2.5625Z" transform="translate(8.54199 5.125)" fill="#FF7A00"/>
<path d="M5.125 15.375V0H0V15.375L2.5625 20.5L5.125 15.375Z" transform="translate(8.54199 10.25)" fill="#FF7A00"/>
<path d="M34.1667 0H15.375V3.41667H23.9167V20.5H3.41667V0C1.53237 0 0 1.53408 0 3.41667V20.5C0 22.3843 1.53237 23.9167 3.41667 23.9167H34.1667C36.051 23.9167 37.5833 22.3843 37.5833 20.5V3.41667C37.5833 1.53408 36.051 0 34.1667 0ZM27.3333 3.41667H34.1667V10.25H27.3333V3.41667ZM27.3333 20.5V13.6667H34.1684V20.5H27.3333Z" transform="translate(1.70825 6.10123)" fill="#FF7A00"/>
</svg>
