<svg width="134" height="90" viewBox="0 0 134 90" fill="none" xmlns="http://www.w3.org/2000/svg">
<g filter="url(#filter0_d)">
<path d="M0 0C0 0 70 0 104 0C138 0 66 70 104 70C142 70 0 70 0 70V0Z" transform="translate(8 10)" fill="#FF3838"/>
</g>
<path d="M0.578714 3.36807C0.86386 3.9644 1.5795 4.42404 2.24341 4.43701L3.87787 4.46926C3.78297 4.88185 3.73114 5.3105 3.73114 5.75121C3.73114 8.92257 6.32632 11.5026 9.51626 11.5026C12.7063 11.5026 15.3016 8.92257 15.3016 5.75121C15.3017 2.57996 12.7064 0 9.51638 0C8.38203 0 7.32387 0.327545 6.42987 0.890593L1.10733 0.878427C0.694157 0.878427 0.346094 1.0531 0.152495 1.35792C-0.0414511 1.66286 -0.0508028 2.05089 0.12675 2.42227L0.578714 3.36807Z" transform="translate(60.0745 20)" fill="white"/>
<path d="M41.6014 18.8443L37.1728 12.7103C36.6905 12.0424 35.8527 11.5388 34.8753 11.5388C34.6254 11.5388 33.8759 11.5388 33.8759 11.5388C33.8759 11.5388 27.3186 11.5388 25.1329 11.5388C23.4715 11.5388 22.6314 11.8575 22.11 12.1207L18.435 13.9761C18.2701 14.0593 18.0365 14.1197 17.7853 14.1487C17.7864 14.1236 17.7891 14.0988 17.7891 14.0733V1.72151C17.7891 0.772268 17.0123 9.63164e-09 16.0574 9.63164e-09H1.73166C0.776822 9.63164e-09 9.15998e-08 0.772268 9.15998e-08 1.72151V14.0733C9.15998e-08 15.0226 0.776822 15.7948 1.73166 15.7948H9.95034C10.1794 16.0364 10.4543 16.229 10.7533 16.3389L16.4608 18.4375C16.8263 18.5718 17.3031 18.6459 17.8032 18.6459C17.8033 18.6459 17.8032 18.6459 17.8033 18.6459C18.2555 18.6459 18.6886 18.5836 19.0227 18.4703L23.4987 16.9536V45.2542C23.4987 46.3932 24.4309 47.32 25.5767 47.32H26.9979C28.1437 47.32 29.0759 46.3932 29.0759 45.2542V30.9144H30.1063V45.254C30.1063 46.3931 31.0385 47.3199 32.1843 47.3199H33.6053C34.751 47.3199 35.6832 46.3931 35.6832 45.254V27.9539H35.9358C36.7734 27.9539 37.7472 27.4262 38.201 26.7266L41.665 21.3869C42.1352 20.6619 42.1072 19.5451 41.6014 18.8443ZM10.359 8.87024V13.1493H7.42962V8.87035H5.83084L8.8946 5.43583L11.9581 8.87012H10.359V8.87024ZM37.5036 21.1642L35.6834 23.7181V17.3422L37.5084 19.946C37.7325 20.2657 37.7302 20.8463 37.5036 21.1642Z" transform="translate(40 21.6801)" fill="white"/>
<defs>
<filter id="filter0_d" x="0" y="0" width="133.409" height="90" filterUnits="userSpaceOnUse" color-interpolation-filters="sRGB">
<feFlood flood-opacity="0" result="BackgroundImageFix"/>
<feColorMatrix in="SourceAlpha" type="matrix" values="0 0 0 0 0 0 0 0 0 0 0 0 0 0 0 0 0 0 255 0"/>
<feOffset dx="2"/>
<feGaussianBlur stdDeviation="5"/>
<feColorMatrix type="matrix" values="0 0 0 0 0 0 0 0 0 0 0 0 0 0 0 0 0 0 0.25 0"/>
<feBlend mode="normal" in2="BackgroundImageFix" result="effect1_dropShadow"/>
<feBlend mode="normal" in="SourceGraphic" in2="effect1_dropShadow" result="shape"/>
</filter>
</defs>
</svg>
