<svg width="40" height="40" viewBox="0 0 40 40" fill="none" xmlns="http://www.w3.org/2000/svg">
<path d="M33.3333 10.8283H27.6333L21.4467 3.49681e-08L18.5533 1.65333L23.795 10.8283H9.53833L14.78 1.655L11.8867 0.00166658L5.7 10.8283H0V14.1617H1.99667L5.04 27.8567C5.20833 28.62 5.885 29.1617 6.66667 29.1617H26.6667C27.4483 29.1617 28.125 28.6183 28.2933 27.8567L31.3367 14.1617H33.3333V10.8283ZM25.33 25.8283H8.00333L5.41 14.1617H27.9217L25.33 25.8283Z" transform="translate(3.33325 5.83832)" fill="#777777"/>
<path d="M3.33333 0H0V8.33333H3.33333V0Z" transform="translate(18.3333 21.6667)" fill="#777777"/>
<path d="M3.33333 0H0V8.33333H3.33333V0Z" transform="translate(23.3333 21.6667)" fill="#777777"/>
<path d="M3.33333 0H0V8.33333H3.33333V0Z" transform="translate(13.3333 21.6667)" fill="#777777"/>
</svg>
