<svg width="36" height="26" viewBox="0 0 36 26" fill="none" xmlns="http://www.w3.org/2000/svg">
<path d="M26.4339 18.5927C24.7089 18.5926 23.3054 17.222 23.3054 15.5372V10.4628C23.3054 8.77796 24.7089 7.4073 26.4339 7.4073H34.5858C34.6352 7.4073 34.6842 7.40875 34.7331 7.4109V2.356C34.7331 1.05481 33.6531 -2.01748e-07 32.3208 -2.01748e-07H2.41235C1.08001 -7.68818e-05 0 1.05473 0 2.35592V23.6439C0 24.9451 1.08001 26 2.41235 26H32.3208C33.6531 26 34.7331 24.9452 34.7331 23.6439V18.589C34.6842 18.5912 34.6352 18.5927 34.5858 18.5927H26.4339Z" fill="#9C4B00"/>
<path d="M9.56609 2.34009e-07H1.41423C0.633195 2.34009e-07 -9.58394e-07 0.618425 -9.58394e-07 1.38124V6.45562C-9.58394e-07 7.21843 0.633195 7.83686 1.41423 7.83686H9.56609C10.3471 7.83686 10.9803 7.21851 10.9803 6.45562V1.38124C10.9803 0.618348 10.3471 2.34009e-07 9.56609 2.34009e-07ZM4.22322 5.91196C3.09587 5.91196 2.182 5.0194 2.182 3.91835C2.182 2.8173 3.09587 1.92475 4.22322 1.92475C5.35057 1.92475 6.26444 2.8173 6.26444 3.91835C6.26444 5.0194 5.35057 5.91196 4.22322 5.91196Z" transform="translate(25.0195 9.08203)" fill="#9C4B00"/>
</svg>
